<?xml version="1.0" encoding="utf-8"?>
<!-- Generator: Adobe Illustrator 15.0.0, SVG Export Plug-In . SVG Version: 6.00 Build 0)  -->
<!DOCTYPE svg PUBLIC "-//W3C//DTD SVG 1.1//EN" "http://www.w3.org/Graphics/SVG/1.1/DTD/svg11.dtd">
<svg version="1.1" id="图层_1" xmlns="http://www.w3.org/2000/svg" xmlns:xlink="http://www.w3.org/1999/xlink" x="0px" y="0px"
	 width="170px" height="118px" viewBox="0 0 170 118" enable-background="new 0 0 170 118" xml:space="preserve">
<path opacity="0.11" fill="#73C6FF" enable-background="new    " d="M160.5,10.655H9.588v97.25H160.5V10.655z M157.5,104.905H12.588
	v-91.25H157.5V104.905z"/>
<path opacity="0.08" fill="#73C6FF" enable-background="new    " d="M162.5,1.155H7.588c-4.142,0-7.5,3.357-7.5,7.5v101.25
	c0,4.144,3.358,7.5,7.5,7.5H162.5c4.143,0,7.5-3.356,7.5-7.5V8.655C170,4.512,166.643,1.155,162.5,1.155z M162.5,109.905H7.588
	V8.655H162.5V109.905z"/>
<path opacity="0.14" fill="#73C6FF" enable-background="new    " d="M162.5,2.655H7.588c-3.313,0-6,2.688-6,6v101.251
	c0,3.313,2.687,6,6,6H162.5c3.313,0,6-2.688,6-6V8.655C168.5,5.342,165.814,2.655,162.5,2.655z M162.5,109.906H7.588V8.655H162.5
	V109.906z"/>
<path opacity="0.09" fill="#73C6FF" enable-background="new    " d="M162.5,3.655H7.588c-2.761,0-5,2.239-5,5v101.25
	c0,2.763,2.239,5,5,5H162.5c2.762,0,5-2.237,5-5V8.655C167.5,5.895,165.262,3.655,162.5,3.655z M162.5,109.905H7.588V8.655H162.5
	V109.905z"/>
<path opacity="0.15" fill="#73C6FF" enable-background="new    " d="M162.5,4.155H7.588c-2.485,0-4.5,2.015-4.5,4.5v101.25
	c0,2.483,2.015,4.5,4.5,4.5H162.5c2.484,0,4.5-2.017,4.5-4.5V8.655C167,6.169,164.984,4.155,162.5,4.155z M162.5,109.905H7.588
	V8.655H162.5V109.905z"/>
<path opacity="0.1" fill="#73C6FF" enable-background="new    " d="M162.5,4.655H7.588c-2.209,0-4,1.791-4,4v101.25
	c0,2.209,1.791,4,4,4H162.5c2.209,0,4-1.791,4-4V8.655C166.5,6.446,164.709,4.655,162.5,4.655z M162.5,109.905H7.588V8.655H162.5
	V109.905z"/>
<path opacity="0.2" fill="#73C6FF" enable-background="new    " d="M162.5,6.655H7.588c-1.104,0-2,0.896-2,2v101.25
	c0,1.104,0.896,2,2,2H162.5c1.104,0,2-0.896,2-2V8.655C164.5,7.55,163.605,6.655,162.5,6.655z M162.5,109.905H7.588V8.655H162.5
	V109.905z"/>
<path opacity="0.2" fill="#73C6FF" enable-background="new    " d="M162.5,6.155H7.588c-1.381,0-2.5,1.119-2.5,2.5v101.25
	c0,1.381,1.119,2.5,2.5,2.5H162.5c1.381,0,2.5-1.119,2.5-2.5V8.655C165,7.274,163.881,6.155,162.5,6.155z M162.5,109.905H7.588
	V8.655H162.5V109.905z"/>
<path opacity="0.2" fill="#73C6FF" enable-background="new    " d="M162.5,5.655H7.588c-1.657,0-3,1.343-3,3v101.25
	c0,1.656,1.343,3,3,3H162.5c1.656,0,3-1.344,3-3V8.655C165.5,6.997,164.156,5.655,162.5,5.655z M162.5,109.905H7.588V8.655H162.5
	V109.905z"/>
<path opacity="0.2" fill="#73C6FF" enable-background="new    " d="M162.5,5.155H7.588c-1.933,0-3.5,1.567-3.5,3.5v101.25
	c0,1.933,1.567,3.5,3.5,3.5H162.5c1.934,0,3.5-1.567,3.5-3.5V8.655C166,6.722,164.434,5.155,162.5,5.155z M162.5,109.905H7.588
	V8.655H162.5V109.905z"/>
<path opacity="0.3" fill="#73C6FF" enable-background="new    " d="M162.5,7.155H7.588c-0.828,0-1.5,0.671-1.5,1.5v101.25
	c0,0.828,0.672,1.5,1.5,1.5H162.5c0.828,0,1.5-0.672,1.5-1.5V8.655C164,7.825,163.328,7.155,162.5,7.155z M162.5,109.905H7.588
	V8.655H162.5V109.905z"/>
<path opacity="0.34" fill="#73C6FF" enable-background="new    " d="M162.5,7.655H7.588c-0.553,0-1,0.448-1,1v101.25
	c0,0.554,0.447,1,1,1H162.5c0.553,0,1-0.446,1-1V8.655C163.5,8.104,163.053,7.655,162.5,7.655z M162.5,109.905H7.588V8.655H162.5
	V109.905z"/>
<path opacity="0.2" fill="#73C6FF" enable-background="new    " d="M84.544,59.78h1v-1C85.544,59.333,85.097,59.78,84.544,59.78z"/>
<path fill="#73C6FF" d="M162.5,8.155H7.588c-0.276,0-0.5,0.224-0.5,0.5v101.25c0,0.274,0.224,0.5,0.5,0.5H162.5
	c0.275,0,0.5-0.226,0.5-0.5V8.655C163,8.378,162.775,8.155,162.5,8.155z M162.5,109.905H7.588V8.655H162.5V109.905z"/>
<path fill="#B3E8FF" d="M162.5,109.905H7.588V8.655H162.5V109.905z M9.588,107.905H160.5v-97.25H9.588V107.905z"/>
<path opacity="0.2" fill="#73C6FF" enable-background="new    " d="M9.588,107.905H160.5v-97.25H9.588V107.905z M10.588,11.655
	H159.5v95.25H10.588V11.655z"/>
<path opacity="0.13" fill="#73C6FF" enable-background="new    " d="M160.5,10.655H9.588v97.25H160.5V10.655z M158.5,105.905H11.588
	v-93.25H158.5V105.905z"/>
</svg>
