<?xml version="1.0" encoding="utf-8"?>
<!-- Generator: Adobe Illustrator 15.0.0, SVG Export Plug-In . SVG Version: 6.00 Build 0)  -->
<!DOCTYPE svg PUBLIC "-//W3C//DTD SVG 1.1//EN" "http://www.w3.org/Graphics/SVG/1.1/DTD/svg11.dtd">
<svg version="1.1" id="图层_1" xmlns="http://www.w3.org/2000/svg" xmlns:xlink="http://www.w3.org/1999/xlink" x="0px" y="0px"
	 width="170px" height="118px" viewBox="0 0 170 118" enable-background="new 0 0 170 118" xml:space="preserve">
<g>
	<path opacity="0.08" fill="#73C6FF" d="M162.412,1.167H7.5c-4.142,0-7.5,3.357-7.5,7.5v101.25c0,4.143,3.358,7.5,7.5,7.5h154.912
		c4.143,0,7.5-3.357,7.5-7.5V8.667C169.912,4.524,166.555,1.167,162.412,1.167z M162.412,109.917H7.5V8.667h154.912V109.917z"/>
	<path opacity="0.14" fill="#73C6FF" d="M162.412,2.666H7.5c-3.313,0-6,2.688-6,6v101.251c0,3.313,2.687,6,6,6h154.912
		c3.313,0,6-2.688,6-6V8.666C168.412,5.353,165.726,2.666,162.412,2.666z M162.412,109.917H7.5V8.666h154.912V109.917z"/>
	<path opacity="0.09" fill="#73C6FF" d="M162.412,3.667H7.5c-2.761,0-5,2.239-5,5v101.25c0,2.762,2.239,5,5,5h154.912
		c2.762,0,5-2.238,5-5V8.667C167.412,5.906,165.174,3.667,162.412,3.667z M162.412,109.917H7.5V8.667h154.912V109.917z"/>
	<path opacity="0.15" fill="#73C6FF" d="M162.412,4.167H7.5c-2.485,0-4.5,2.015-4.5,4.5v101.25c0,2.484,2.015,4.5,4.5,4.5h154.912
		c2.485,0,4.5-2.016,4.5-4.5V8.667C166.912,6.181,164.897,4.167,162.412,4.167z M162.412,109.917H7.5V8.667h154.912V109.917z"/>
	<path opacity="0.1" fill="#73C6FF" d="M162.412,4.667H7.5c-2.209,0-4,1.791-4,4v101.25c0,2.209,1.791,4,4,4h154.912
		c2.209,0,4-1.791,4-4V8.667C166.412,6.458,164.621,4.667,162.412,4.667z M162.412,109.917H7.5V8.667h154.912V109.917z"/>
	<path opacity="0.2" fill="#73C6FF" d="M162.412,6.667H7.5c-1.104,0-2,0.896-2,2v101.25c0,1.104,0.896,2,2,2h154.912
		c1.104,0,2-0.896,2-2V8.667C164.412,7.562,163.517,6.667,162.412,6.667z M162.412,109.917H7.5V8.667h154.912V109.917z"/>
	<path opacity="0.2" fill="#73C6FF" d="M162.412,6.167H7.5c-1.381,0-2.5,1.119-2.5,2.5v101.25c0,1.381,1.119,2.5,2.5,2.5h154.912
		c1.381,0,2.5-1.119,2.5-2.5V8.667C164.912,7.286,163.793,6.167,162.412,6.167z M162.412,109.917H7.5V8.667h154.912V109.917z"/>
	<path opacity="0.2" fill="#73C6FF" d="M162.412,5.667H7.5c-1.657,0-3,1.343-3,3v101.25c0,1.656,1.343,3,3,3h154.912
		c1.657,0,3-1.344,3-3V8.667C165.412,7.009,164.069,5.667,162.412,5.667z M162.412,109.917H7.5V8.667h154.912V109.917z"/>
	<path opacity="0.2" fill="#73C6FF" d="M162.412,5.167H7.5c-1.933,0-3.5,1.567-3.5,3.5v101.25c0,1.932,1.567,3.5,3.5,3.5h154.912
		c1.933,0,3.5-1.568,3.5-3.5V8.667C165.912,6.734,164.345,5.167,162.412,5.167z M162.412,109.917H7.5V8.667h154.912V109.917z"/>
	<path opacity="0.3" fill="#73C6FF" d="M162.412,7.167H7.5c-0.828,0-1.5,0.671-1.5,1.5v101.25c0,0.828,0.672,1.5,1.5,1.5h154.912
		c0.828,0,1.5-0.672,1.5-1.5V8.667C163.912,7.837,163.24,7.167,162.412,7.167z M162.412,109.917H7.5V8.667h154.912V109.917z"/>
	<path opacity="0.34" fill="#73C6FF" d="M162.412,7.667H7.5c-0.553,0-1,0.448-1,1v101.25c0,0.553,0.447,1,1,1h154.912
		c0.553,0,1-0.447,1-1V8.667C163.412,8.115,162.965,7.667,162.412,7.667z M162.412,109.917H7.5V8.667h154.912V109.917z"/>
	<path opacity="0.2" fill="#73C6FF" d="M87.666,64h1v-1C88.666,63.553,88.219,64,87.666,64z"/>
	<path fill="#73C6FF" d="M162.412,8.167H7.5c-0.276,0-0.5,0.224-0.5,0.5v101.25c0,0.275,0.224,0.5,0.5,0.5h154.912
		c0.276,0,0.5-0.225,0.5-0.5V8.667C162.912,8.39,162.688,8.167,162.412,8.167z M162.412,109.917H7.5V8.667h154.912V109.917z"/>
	<path fill="#B3E8FF" d="M162.412,109.917H7.5V8.667h154.912V109.917z M9.5,107.917h150.912v-97.25H9.5V107.917z"/>
</g>
</svg>
